<svg xmlns="http://www.w3.org/2000/svg" version="1.1" xmlns:xlink="http://www.w3.org/1999/xlink"  width="1000" height="1000"><rect width="1000" height="1000" rx="250" ry="250" fill="#ffffff"></rect><g transform="matrix(19.148936170212767,0,0,19.148936170212767,47.943742377960916,254.69360652819591)"><svg xmlns="http://www.w3.org/2000/svg" version="1.1" xmlns:xlink="http://www.w3.org/1999/xlink" width="47" height="26"><svg width="47" height="26" viewBox="0 0 47 26" fill="none" xmlns="http://www.w3.org/2000/svg">
<path d="M1.48 6.36C1.29333 6.06667 1.12 5.66667 0.96 5.16C0.8 4.65333 0.72 4.12 0.72 3.56C0.72 2.52 0.946667 1.77333 1.4 1.32C1.88 0.866666 2.49333 0.639999 3.24 0.639999H20.68C20.8667 0.933332 21.04 1.33333 21.2 1.84C21.36 2.34667 21.44 2.88 21.44 3.44C21.44 4.48 21.2 5.22667 20.72 5.68C20.2667 6.13333 19.6667 6.36 18.92 6.36H14.48V24.84C14.1867 24.92 13.72 25 13.08 25.08C12.4667 25.16 11.8533 25.2 11.24 25.2C10.6267 25.2 10.08 25.1467 9.6 25.04C9.14667 24.96 8.76 24.8 8.44 24.56C8.12 24.32 7.88 23.9867 7.72 23.56C7.56 23.1333 7.48 22.5733 7.48 21.88V6.36H1.48ZM46.5066 24.84C46.2132 24.92 45.7466 25 45.1066 25.08C44.4932 25.16 43.8799 25.2 43.2666 25.2C42.6532 25.2 42.1066 25.1467 41.6266 25.04C41.1732 24.96 40.7866 24.8 40.4666 24.56C40.1466 24.32 39.9066 23.9867 39.7466 23.56C39.5866 23.1333 39.5066 22.5733 39.5066 21.88V15.64H31.8266V24.84C31.5332 24.92 31.0666 25 30.4266 25.08C29.8132 25.16 29.1999 25.2 28.5866 25.2C27.9732 25.2 27.4266 25.1467 26.9466 25.04C26.4932 24.96 26.1066 24.8 25.7866 24.56C25.4666 24.32 25.2266 23.9867 25.0666 23.56C24.9066 23.1333 24.8266 22.5733 24.8266 21.88V0.76C25.1199 0.706666 25.5866 0.639999 26.2266 0.56C26.8666 0.453333 27.4799 0.4 28.0666 0.4C28.6799 0.4 29.2132 0.453333 29.6666 0.56C30.1466 0.639999 30.5466 0.799998 30.8666 1.04C31.1866 1.28 31.4266 1.61333 31.5866 2.04C31.7466 2.46667 31.8266 3.02667 31.8266 3.72V10.12H39.5066V0.76C39.7999 0.706666 40.2666 0.639999 40.9066 0.56C41.5466 0.453333 42.1599 0.4 42.7466 0.4C43.3599 0.4 43.8932 0.453333 44.3466 0.56C44.8266 0.639999 45.2266 0.799998 45.5466 1.04C45.8666 1.28 46.1066 1.61333 46.2666 2.04C46.4266 2.46667 46.5066 3.02667 46.5066 3.72V24.84Z" fill="#3077C6"></path>
</svg></svg></g></svg>