<svg xmlns="http://www.w3.org/2000/svg">
  <symbol id="logo" viewBox="0 0 284 55" fill="currentColor">
    <path d="M1.16497 15.1575C0.878841 14.7038 0.613145 14.0851 0.367887 13.3015C0.122629 12.5178 0 11.6929 0 10.8268C0 9.21822 0.347449 8.06337 1.04235 7.36221C1.77812 6.66104 2.71827 6.31046 3.86281 6.31046H30.5959C30.8821 6.76415 31.1478 7.38283 31.393 8.16648C31.6383 8.95013 31.7609 9.77503 31.7609 10.6412C31.7609 12.2497 31.393 13.4046 30.6572 14.1057C29.9623 14.8069 29.0426 15.1575 27.8981 15.1575H21.0922V43.7402C20.6425 43.8639 19.9272 43.9876 18.9462 44.1114C18.006 44.2351 17.0659 44.297 16.1257 44.297C15.1856 44.297 14.3476 44.2145 13.6118 44.0495C12.9169 43.9258 12.3242 43.6783 11.8337 43.3071C11.3432 42.9359 10.9753 42.4203 10.73 41.7604C10.4848 41.1005 10.3621 40.2343 10.3621 39.162V15.1575H1.16497Z" fill="currentColor"/>
    <path d="M44.1234 43.9258C43.7147 44.0495 43.0606 44.1732 42.1614 44.297C41.303 44.4207 40.4037 44.4826 39.4635 44.4826C38.5642 44.4826 37.7467 44.4207 37.0109 44.297C36.316 44.1732 35.7233 43.9258 35.2328 43.5546C34.7423 43.1834 34.354 42.6884 34.0679 42.0697C33.8226 41.4098 33.7 40.5643 33.7 39.5332V20.973C33.7 20.0244 33.8635 19.2201 34.1905 18.5602C34.5584 17.859 35.0693 17.2403 35.7233 16.7042C36.3774 16.168 37.1745 15.6937 38.1146 15.2812C39.0956 14.8275 40.138 14.4357 41.2416 14.1057C42.3453 13.7758 43.4898 13.5283 44.6753 13.3633C45.8607 13.1571 47.0461 13.054 48.2315 13.054C50.1936 13.054 51.7469 13.4458 52.8914 14.2295C54.0359 14.9719 54.6082 16.2092 54.6082 17.9415C54.6082 18.5189 54.5264 19.0964 54.3629 19.6738C54.1994 20.21 53.9951 20.7049 53.7498 21.1586C52.8914 21.1586 52.0126 21.1998 51.1133 21.2823C50.214 21.3648 49.3352 21.4886 48.4768 21.6535C47.6183 21.8185 46.8008 22.0041 46.0242 22.2103C45.2884 22.3753 44.6548 22.5816 44.1234 22.829V43.9258Z" fill="currentColor"/>
    <path d="M58.6631 5.56805C58.6631 4.00075 59.1741 2.68091 60.196 1.60855C61.2587 0.536182 62.6485 0 64.3653 0C66.0821 0 67.4515 0.536182 68.4734 1.60855C69.5362 2.68091 70.0676 4.00075 70.0676 5.56805C70.0676 7.13536 69.5362 8.45519 68.4734 9.52756C67.4515 10.5999 66.0821 11.1361 64.3653 11.1361C62.6485 11.1361 61.2587 10.5999 60.196 9.52756C59.1741 8.45519 58.6631 7.13536 58.6631 5.56805ZM69.5771 43.9258C69.1274 44.0083 68.453 44.1114 67.5537 44.2351C66.6953 44.4001 65.8164 44.4826 64.9172 44.4826C64.0179 44.4826 63.2004 44.4207 62.4646 44.297C61.7697 44.1732 61.177 43.9258 60.6865 43.5546C60.196 43.1834 59.8076 42.6884 59.5215 42.0697C59.2762 41.4098 59.1536 40.5643 59.1536 39.5332V14.3532C59.6033 14.2707 60.2573 14.1676 61.1157 14.0439C62.015 13.8789 62.9142 13.7964 63.8135 13.7964C64.7128 13.7964 65.5099 13.8583 66.2048 13.982C66.9405 14.1057 67.5537 14.3532 68.0442 14.7244C68.5347 15.0956 68.9026 15.6112 69.1479 16.2711C69.434 16.8898 69.5771 17.7147 69.5771 18.7458V43.9258Z" fill="currentColor"/>
    <path d="M89.8861 12.9921C92.3386 12.9921 94.6073 13.3221 96.692 13.982C98.8175 14.6007 100.637 15.5699 102.149 16.8898C103.661 18.2096 104.847 19.88 105.705 21.901C106.564 23.8808 106.993 26.2523 106.993 29.0157C106.993 31.6554 106.625 33.9651 105.889 35.9449C105.153 37.9246 104.111 39.5951 102.762 40.9561C101.413 42.276 99.7781 43.2658 97.8569 43.9258C95.9766 44.5857 93.8715 44.9156 91.5415 44.9156C89.7839 44.9156 88.1488 44.6475 86.6364 44.1114V54.3813C86.2276 54.5051 85.5736 54.6288 84.6743 54.7525C83.775 54.9175 82.8553 55 81.9152 55C81.0159 55 80.1984 54.9381 79.4626 54.8144C78.7677 54.6907 78.175 54.4432 77.6845 54.072C77.194 53.7008 76.8261 53.1852 76.5808 52.5253C76.3356 51.9066 76.2129 51.0817 76.2129 50.0506V20.3543C76.2129 19.2407 76.4377 18.3333 76.8874 17.6322C77.3779 16.931 78.0319 16.2917 78.8495 15.7143C80.1166 14.8894 81.6904 14.2295 83.5707 13.7345C85.451 13.2396 87.5561 12.9921 89.8861 12.9921ZM90.0087 36.6254C94.2189 36.6254 96.3241 34.0889 96.3241 29.0157C96.3241 26.3761 95.7927 24.4169 94.7299 23.1384C93.708 21.8598 92.216 21.2205 90.2539 21.2205C89.4773 21.2205 88.7824 21.3236 88.1692 21.5298C87.5561 21.6948 87.0247 21.901 86.5751 22.1485V35.7593C87.0656 36.0067 87.597 36.213 88.1692 36.378C88.7415 36.5429 89.3547 36.6254 90.0087 36.6254Z" fill="currentColor"/>
    <path d="M146.109 43.7402C145.659 43.8639 144.944 43.9876 143.963 44.1114C143.023 44.2351 142.083 44.297 141.143 44.297C140.202 44.297 139.364 44.2145 138.629 44.0495C137.934 43.9258 137.341 43.6783 136.851 43.3071C136.36 42.9359 135.992 42.4203 135.747 41.7604C135.502 41.1005 135.379 40.2343 135.379 39.162V29.5107H123.607V43.7402C123.157 43.8639 122.442 43.9876 121.461 44.1114C120.52 44.2351 119.58 44.297 118.64 44.297C117.7 44.297 116.862 44.2145 116.126 44.0495C115.431 43.9258 114.839 43.6783 114.348 43.3071C113.858 42.9359 113.49 42.4203 113.244 41.7604C112.999 41.1005 112.877 40.2343 112.877 39.162V6.49606C113.326 6.41357 114.042 6.31046 115.023 6.18673C116.004 6.02175 116.944 5.93926 117.843 5.93926C118.783 5.93926 119.601 6.02175 120.296 6.18673C121.031 6.31046 121.645 6.55793 122.135 6.92913C122.626 7.30034 122.993 7.8159 123.239 8.47582C123.484 9.13573 123.607 10.0019 123.607 11.0742V20.973H135.379V6.49606C135.829 6.41357 136.544 6.31046 137.525 6.18673C138.506 6.02175 139.446 5.93926 140.345 5.93926C141.286 5.93926 142.103 6.02175 142.798 6.18673C143.534 6.31046 144.147 6.55793 144.637 6.92913C145.128 7.30034 145.496 7.8159 145.741 8.47582C145.986 9.13573 146.109 10.0019 146.109 11.0742V43.7402Z" fill="currentColor"/>
    <path d="M184.116 28.9539C184.116 31.5111 183.728 33.8002 182.951 35.8211C182.175 37.8009 181.071 39.4713 179.64 40.8324C178.251 42.1935 176.575 43.2246 174.613 43.9258C172.651 44.6269 170.464 44.9775 168.052 44.9775C165.64 44.9775 163.453 44.6063 161.491 43.8639C159.529 43.1215 157.833 42.0697 156.402 40.7087C155.012 39.3063 153.929 37.6153 153.153 35.6355C152.376 33.6558 151.988 31.4286 151.988 28.9539C151.988 26.5204 152.376 24.3138 153.153 22.3341C153.929 20.3543 155.012 18.6839 156.402 17.3228C157.833 15.9205 159.529 14.8481 161.491 14.1057C163.453 13.3633 165.64 12.9921 168.052 12.9921C170.464 12.9921 172.651 13.384 174.613 14.1676C176.575 14.91 178.251 15.9824 179.64 17.3847C181.071 18.7458 182.175 20.4162 182.951 22.396C183.728 24.3757 184.116 26.5617 184.116 28.9539ZM162.656 28.9539C162.656 31.4698 163.126 33.4083 164.067 34.7694C165.048 36.0892 166.396 36.7492 168.113 36.7492C169.83 36.7492 171.138 36.0686 172.037 34.7075C172.978 33.3465 173.448 31.4286 173.448 28.9539C173.448 26.4792 172.978 24.5819 172.037 23.2621C171.097 21.901 169.769 21.2205 168.052 21.2205C166.335 21.2205 165.007 21.901 164.067 23.2621C163.126 24.5819 162.656 26.4792 162.656 28.9539Z" fill="currentColor"/>
    <path d="M189.202 14.3532C189.61 14.2295 190.244 14.1057 191.102 13.982C192.002 13.8583 192.921 13.7964 193.862 13.7964C194.761 13.7964 195.558 13.8583 196.253 13.982C196.989 14.1057 197.602 14.3532 198.092 14.7244C198.583 15.0956 198.951 15.6112 199.196 16.2711C199.482 16.8898 199.625 17.7147 199.625 18.7458V32.0472C199.625 33.7383 200.034 34.955 200.851 35.6974C201.669 36.3986 202.854 36.7492 204.408 36.7492C205.348 36.7492 206.104 36.6667 206.676 36.5017C207.289 36.3367 207.759 36.1717 208.086 36.0067V14.3532C208.495 14.2295 209.129 14.1057 209.987 13.982C210.886 13.8583 211.806 13.7964 212.746 13.7964C213.646 13.7964 214.443 13.8583 215.138 13.982C215.873 14.1057 216.487 14.3532 216.977 14.7244C217.468 15.0956 217.835 15.6112 218.081 16.2711C218.367 16.8898 218.51 17.7147 218.51 18.7458V37.5534C218.51 39.6157 217.652 41.1624 215.935 42.1935C214.504 43.1009 212.787 43.7814 210.784 44.2351C208.822 44.73 206.676 44.9775 204.346 44.9775C202.139 44.9775 200.095 44.73 198.215 44.2351C196.375 43.7402 194.781 42.9771 193.432 41.946C192.083 40.9149 191.041 39.5951 190.305 37.9865C189.569 36.3367 189.202 34.357 189.202 32.0472V14.3532Z" fill="currentColor"/>
    <path d="M250.027 35.0169C250.027 38.1515 248.862 40.6056 246.533 42.3791C244.203 44.1526 240.769 45.0394 236.232 45.0394C234.515 45.0394 232.921 44.9156 231.449 44.6682C229.978 44.4207 228.71 44.0495 227.648 43.5546C226.626 43.0184 225.808 42.3585 225.195 41.5748C224.623 40.7912 224.337 39.8631 224.337 38.7908C224.337 37.8009 224.541 36.976 224.95 36.3161C225.359 35.6149 225.849 35.0375 226.421 34.5838C227.607 35.2437 228.956 35.8418 230.468 36.378C232.021 36.8729 233.8 37.1204 235.803 37.1204C237.07 37.1204 238.03 36.9348 238.684 36.5636C239.379 36.1924 239.727 35.6974 239.727 35.0787C239.727 34.5013 239.481 34.0476 238.991 33.7177C238.5 33.3877 237.683 33.1196 236.538 32.9134L234.699 32.5422C231.143 31.841 228.486 30.748 226.728 29.2632C225.011 27.7372 224.153 25.5718 224.153 22.7672C224.153 21.2411 224.48 19.8594 225.134 18.622C225.788 17.3847 226.708 16.3536 227.893 15.5287C229.078 14.7038 230.489 14.0645 232.124 13.6108C233.8 13.1571 235.639 12.9303 237.642 12.9303C239.154 12.9303 240.565 13.054 241.873 13.3015C243.222 13.5077 244.387 13.8376 245.368 14.2913C246.349 14.745 247.125 15.3431 247.698 16.0855C248.27 16.7867 248.556 17.6322 248.556 18.622C248.556 19.5707 248.372 20.3956 248.004 21.0967C247.677 21.7567 247.248 22.3135 246.716 22.7672C246.389 22.5609 245.899 22.3547 245.245 22.1485C244.591 21.901 243.876 21.6948 243.099 21.5298C242.322 21.3236 241.525 21.1586 240.708 21.0349C239.931 20.9111 239.216 20.8493 238.562 20.8493C237.213 20.8493 236.17 21.0142 235.435 21.3442C234.699 21.6329 234.331 22.1072 234.331 22.7672C234.331 23.2208 234.535 23.5921 234.944 23.8808C235.353 24.1695 236.13 24.4376 237.274 24.685L239.175 25.1181C243.099 26.0255 245.879 27.2835 247.514 28.892C249.189 30.4593 250.027 32.5009 250.027 35.0169Z" fill="currentColor"/>
    <path d="M271.124 44.9775C268.712 44.9775 266.464 44.6475 264.379 43.9876C262.336 43.2865 260.537 42.2553 258.984 40.8943C257.471 39.5332 256.265 37.8215 255.366 35.7593C254.508 33.697 254.079 31.2842 254.079 28.5208C254.079 25.7987 254.508 23.4683 255.366 21.5298C256.265 19.5501 257.43 17.9415 258.861 16.7042C260.292 15.4256 261.927 14.4976 263.766 13.9201C265.606 13.3015 267.486 12.9921 269.407 12.9921C271.574 12.9921 273.536 13.3221 275.293 13.982C277.092 14.6419 278.625 15.5493 279.892 16.7042C281.2 17.859 282.201 19.2407 282.896 20.8493C283.632 22.4578 284 24.2107 284 26.108C284 27.5103 283.612 28.5827 282.835 29.3251C282.058 30.0675 280.975 30.5418 279.585 30.748L264.441 33.0371C264.89 34.3982 265.81 35.4293 267.2 36.1305C268.59 36.7904 270.184 37.1204 271.982 37.1204C273.658 37.1204 275.232 36.9141 276.704 36.5017C278.216 36.048 279.442 35.5324 280.382 34.955C281.036 35.3675 281.588 35.9449 282.038 36.6873C282.488 37.4297 282.712 38.2134 282.712 39.0382C282.712 40.8943 281.854 42.276 280.137 43.1834C278.829 43.8845 277.358 44.3588 275.723 44.6063C274.087 44.8538 272.555 44.9775 271.124 44.9775ZM269.407 20.6637C268.426 20.6637 267.568 20.8286 266.832 21.1586C266.137 21.4886 265.565 21.9216 265.115 22.4578C264.666 22.9528 264.318 23.5302 264.073 24.1901C263.868 24.8088 263.746 25.4481 263.705 26.108L274.19 24.3757C274.067 23.5508 273.617 22.7259 272.841 21.901C272.064 21.0761 270.92 20.6637 269.407 20.6637Z" fill="currentColor"/>
  </symbol>

  <symbol id="favicon1" width="16" height="16" viewBox="0 0 16 16" fill="#4200b7">
    <path d="M1.48 6.36c-.187-.293-.36-.693-.52-1.2a5.282 5.282 0 0 1-.24-1.6c0-1.04.227-1.787.68-2.24C1.88.867 2.493.64 3.24.64h17.44c.187.293.36.693.52 1.2.16.507.24 1.04.24 1.6 0 1.04-.24 1.787-.72 2.24-.453.453-1.053.68-1.8.68h-4.44v18.48c-.293.08-.76.16-1.4.24-.613.08-1.227.12-1.84.12s-1.16-.053-1.64-.16c-.453-.08-.84-.24-1.16-.48-.32-.24-.56-.573-.72-1-.16-.427-.24-.987-.24-1.68V6.36h-6Zm45.027 18.48c-.294.08-.76.16-1.4.24-.614.08-1.227.12-1.84.12-.614 0-1.16-.053-1.64-.16-.454-.08-.84-.24-1.16-.48-.32-.24-.56-.573-.72-1-.16-.427-.24-.987-.24-1.68v-6.24h-7.68v9.2c-.294.08-.76.16-1.4.24-.614.08-1.227.12-1.84.12-.614 0-1.16-.053-1.64-.16-.454-.08-.84-.24-1.16-.48-.32-.24-.56-.573-.72-1-.16-.427-.24-.987-.24-1.68V.76c.293-.053.76-.12 1.4-.2.64-.107 1.253-.16 1.84-.16a7.05 7.05 0 0 1 1.6.16c.48.08.88.24 1.2.48.32.24.56.573.72 1 .16.427.24.987.24 1.68v6.4h7.68V.76c.293-.053.76-.12 1.4-.2.64-.107 1.253-.16 1.84-.16a7.05 7.05 0 0 1 1.6.16c.48.08.88.24 1.2.48.32.24.56.573.72 1 .16.427.24.987.24 1.68v21.12Z"/>
  </symbol>

  <symbol id="night-view-outline" viewBox="0 0 30 30" fill="currentColor">
    <path d="M25.61 10.61V4.39h-6.22L15 0l-4.39 4.39H4.39v6.22L0 15l4.39 4.39v6.22h6.22L15 30l4.39-4.39h6.22v-6.22L30 15l-4.39-4.39ZM15 22.958a7.924 7.924 0 0 1-3.316-.73c2.732-1.26 4.642-4.018 4.642-7.228s-1.91-5.968-4.642-7.228A7.924 7.924 0 0 1 15 7.042c4.39 0 7.958 3.568 7.958 7.958 0 4.39-3.568 7.958-7.958 7.958Z"/>
  </symbol>

  <symbol id="account-outline" viewBox="0 0 40 40" fill="currentColor">
    <path d="M20 0C8.96 0 0 8.96 0 20s8.96 20 20 20 20-8.96 20-20S31.04 0 20 0Zm0 6c3.32 0 6 2.68 6 6s-2.68 6-6 6-6-2.68-6-6 2.68-6 6-6Zm0 28.4c-5 0-9.42-2.56-12-6.44.06-3.98 8-6.16 12-6.16 3.98 0 11.94 2.18 12 6.16-2.58 3.88-7 6.44-12 6.44Z"/>
  </symbol>

  <symbol id="google-play" viewBox="0 0 135 40" fill="none" xmlns="http://www.w3.org/2000/svg">
      <path d="M130 39.9999H5C2.25 39.9999 0 37.75 0 35V4.99999C0 2.25 2.25 0 5 0H130C132.75 0 135 2.25 135 4.99999V35C135 37.75 132.75 39.9999 130 39.9999Z" fill="black"/>
      <path d="M130 0.799999C132.32 0.799999 134.2 2.68 134.2 4.99999V35C134.2 37.32 132.32 39.2 130 39.2H5C2.68 39.2 0.8 37.32 0.8 35V4.99999C0.8 2.68 2.68 0.799999 5 0.799999H130ZM130 0H5C2.25 0 0 2.25 0 4.99999V35C0 37.75 2.25 39.9999 5 39.9999H130C132.75 39.9999 135 37.75 135 35V4.99999C135 2.25 132.75 0 130 0Z" fill="#A6A6A6"/>
      <path d="M47.42 10.2399C47.42 11.0799 47.17 11.7499 46.67 12.2399C46.11 12.8299 45.37 13.1299 44.47 13.1299C43.6 13.1299 42.87 12.8299 42.26 12.2299C41.65 11.6299 41.35 10.8799 41.35 9.99991C41.35 9.1099 41.65 8.36989 42.26 7.76988C42.87 7.16988 43.6 6.86987 44.47 6.86987C44.9 6.86987 45.31 6.94987 45.7 7.11988C46.09 7.28988 46.4 7.50988 46.64 7.78988L46.11 8.31989C45.71 7.84988 45.17 7.60988 44.47 7.60988C43.84 7.60988 43.29 7.82988 42.83 8.27989C42.37 8.7199 42.14 9.2999 42.14 10.0099C42.14 10.7199 42.37 11.2999 42.83 11.7399C43.29 12.1799 43.84 12.4099 44.47 12.4099C45.14 12.4099 45.7 12.1899 46.15 11.7399C46.44 11.4499 46.61 11.0399 46.65 10.5199H44.47V9.79991H47.38C47.4 9.94991 47.42 10.0999 47.42 10.2399Z" fill="white" stroke="white" stroke-width="0.2" stroke-miterlimit="10"/>
      <path d="M52.03 7.73988H49.3V9.63988H51.76V10.3599H49.3V12.2599H52.03V12.9999H48.53V6.99988H52.03V7.73988Z" fill="white" stroke="white" stroke-width="0.2" stroke-miterlimit="10"/>
      <path d="M55.28 12.9999H54.51V7.73988H52.83V6.99988H56.95V7.73988H55.27V12.9999H55.28Z" fill="white" stroke="white" stroke-width="0.2" stroke-miterlimit="10"/>
      <path d="M59.94 12.9999V6.99988H60.71V12.9999H59.94Z" fill="white" stroke="white" stroke-width="0.2" stroke-miterlimit="10"/>
      <path d="M64.13 12.9999H63.36V7.73988H61.68V6.99988H65.8V7.73988H64.12V12.9999H64.13Z" fill="white" stroke="white" stroke-width="0.2" stroke-miterlimit="10"/>
      <path d="M73.61 12.2199C73.02 12.8299 72.29 13.1299 71.41 13.1299C70.53 13.1299 69.8 12.8299 69.21 12.2199C68.62 11.6099 68.33 10.8699 68.33 9.99991C68.33 9.1299 68.62 8.37989 69.21 7.77988C69.8 7.16988 70.53 6.86987 71.41 6.86987C72.28 6.86987 73.01 7.16988 73.61 7.77988C74.2 8.38989 74.5 9.1299 74.5 9.99991C74.49 10.8799 74.2 11.6199 73.61 12.2199ZM69.78 11.7199C70.22 12.1699 70.77 12.3899 71.41 12.3899C72.05 12.3899 72.6 12.1699 73.04 11.7199C73.48 11.2699 73.71 10.6999 73.71 9.99991C73.71 9.2999 73.49 8.7299 73.04 8.27989C72.6 7.82988 72.05 7.60988 71.41 7.60988C70.77 7.60988 70.22 7.82988 69.78 8.27989C69.34 8.7299 69.11 9.2999 69.11 9.99991C69.11 10.6999 69.34 11.2699 69.78 11.7199Z" fill="white" stroke="white" stroke-width="0.2" stroke-miterlimit="10"/>
      <path d="M75.58 12.9999V6.99988H76.52L79.44 11.6699H79.47L79.44 10.5099V6.99988H80.21V12.9999H79.41L76.36 8.10988H76.33L76.36 9.26988V12.9999H75.58Z" fill="white" stroke="white" stroke-width="0.2" stroke-miterlimit="10"/>
      <path d="M68.14 21.75C65.79 21.75 63.87 23.54 63.87 26C63.87 28.45 65.79 30.25 68.14 30.25C70.49 30.25 72.41 28.45 72.41 26C72.41 23.54 70.49 21.75 68.14 21.75ZM68.14 28.58C66.85 28.58 65.74 27.52 65.74 26C65.74 24.47 66.85 23.42 68.14 23.42C69.43 23.42 70.54 24.47 70.54 26C70.54 27.52 69.42 28.58 68.14 28.58ZM58.82 21.75C56.47 21.75 54.55 23.54 54.55 26C54.55 28.45 56.47 30.25 58.82 30.25C61.17 30.25 63.09 28.45 63.09 26C63.09 23.54 61.17 21.75 58.82 21.75ZM58.82 28.58C57.53 28.58 56.42 27.52 56.42 26C56.42 24.47 57.53 23.42 58.82 23.42C60.11 23.42 61.22 24.47 61.22 26C61.22 27.52 60.11 28.58 58.82 28.58ZM47.74 23.06V24.86H52.06C51.93 25.87 51.59 26.62 51.08 27.13C50.45 27.76 49.47 28.45 47.75 28.45C45.09 28.45 43.01 26.31 43.01 23.65C43.01 20.99 45.09 18.8499 47.75 18.8499C49.18 18.8499 50.23 19.4099 51 20.1399L52.27 18.8699C51.19 17.8399 49.76 17.0499 47.74 17.0499C44.1 17.0499 41.04 20.0099 41.04 23.66C41.04 27.3 44.1 30.27 47.74 30.27C49.71 30.27 51.19 29.63 52.35 28.42C53.54 27.23 53.91 25.55 53.91 24.2C53.91 23.78 53.88 23.39 53.81 23.07H47.74V23.06ZM93.05 24.46C92.7 23.51 91.62 21.75 89.41 21.75C87.22 21.75 85.4 23.47 85.4 26C85.4 28.38 87.2 30.25 89.62 30.25C91.57 30.25 92.7 29.06 93.16 28.37L91.71 27.4C91.23 28.11 90.57 28.58 89.62 28.58C88.67 28.58 87.99 28.14 87.56 27.29L93.25 24.94L93.05 24.46ZM87.25 25.88C87.2 24.24 88.52 23.4 89.47 23.4C90.21 23.4 90.84 23.77 91.05 24.3L87.25 25.88ZM82.63 30H84.5V17.4999H82.63V30ZM79.57 22.7H79.5C79.08 22.2 78.28 21.75 77.26 21.75C75.13 21.75 73.18 23.62 73.18 26.02C73.18 28.4 75.13 30.26 77.26 30.26C78.27 30.26 79.08 29.81 79.5 29.29H79.56V29.9C79.56 31.53 78.69 32.4 77.29 32.4C76.15 32.4 75.44 31.58 75.15 30.89L73.52 31.57C73.99 32.7 75.23 34.08 77.29 34.08C79.48 34.08 81.33 32.79 81.33 29.65V22.01H79.56V22.7H79.57ZM77.42 28.58C76.13 28.58 75.05 27.5 75.05 26.02C75.05 24.52 76.13 23.43 77.42 23.43C78.69 23.43 79.69 24.53 79.69 26.02C79.7 27.5 78.7 28.58 77.42 28.58ZM101.81 17.4999H97.34V30H99.21V25.26H101.82C103.89 25.26 105.92 23.76 105.92 21.38C105.92 18.9999 103.87 17.4999 101.81 17.4999ZM101.85 23.52H99.2V19.2299H101.85C103.25 19.2299 104.04 20.3899 104.04 21.37C104.04 22.35 103.25 23.52 101.85 23.52ZM113.39 21.73C112.04 21.73 110.64 22.33 110.06 23.64L111.72 24.33C112.07 23.64 112.73 23.41 113.42 23.41C114.38 23.41 115.37 23.99 115.38 25.02V25.15C115.04 24.96 114.32 24.67 113.43 24.67C111.64 24.67 109.83 25.65 109.83 27.48C109.83 29.15 111.29 30.23 112.93 30.23C114.18 30.23 114.88 29.67 115.31 29.01H115.37V29.98H117.17V25.19C117.18 22.97 115.52 21.73 113.39 21.73ZM113.16 28.58C112.55 28.58 111.7 28.27 111.7 27.52C111.7 26.56 112.76 26.19 113.68 26.19C114.5 26.19 114.89 26.37 115.38 26.61C115.24 27.76 114.24 28.58 113.16 28.58ZM123.74 22L121.6 27.42H121.54L119.32 22H117.31L120.64 29.58L118.74 33.79H120.69L125.82 22H123.74ZM106.94 30H108.81V17.4999H106.94V30Z" fill="white"/>
      <path d="M10.44 7.53997C10.15 7.84997 9.97998 8.32997 9.97998 8.93997V31.0599C9.97998 31.6799 10.15 32.1599 10.44 32.4599L10.51 32.5299L22.9 20.1499V19.9999V19.8499L10.51 7.46997L10.44 7.53997Z" fill="#00d3fe"/>
      <path d="M27.03 24.2799L22.9 20.1499V19.9999V19.8499L27.03 15.72L27.12 15.77L32.01 18.55C33.41 19.3399 33.41 20.6399 32.01 21.4399L27.12 24.2199L27.03 24.2799Z" fill="#ffcd00"/>
      <path d="M27.12 24.22L22.9 20L10.44 32.46C10.9 32.95 11.66 33.01 12.52 32.52L27.12 24.22Z" fill="#f73549"/>
      <path d="M27.12 15.78L12.51 7.47999C11.65 6.98999 10.89 7.04999 10.43 7.53999L22.9 20L27.12 15.78Z" fill="#00f076"/>
      <path opacity="1" d="M27.03 24.13L12.51 32.38C11.7 32.84 10.97 32.81 10.51 32.39L10.44 32.46L10.51 32.53C10.98 32.95 11.7 32.98 12.51 32.52L27.12 24.22L27.03 24.13Z" fill="black"/>
      <path opacity="1" d="M10.44 32.3201C10.15 32.0101 9.97998 31.5302 9.97998 30.9202V31.0702C9.97998 31.6901 10.15 32.1701 10.44 32.4701L10.51 32.4001L10.44 32.3201Z" fill="black"/>
      <path opacity="1" d="M32.01 21.3L27.02 24.1301L27.11 24.2201L32 21.44C32.7 21.04 33.05 20.52 33.05 20C33 20.47 32.65 20.94 32.01 21.3Z" fill="black"/>
      <path opacity="1" d="M12.51 7.61994L32.01 18.7C32.64 19.06 33 19.52 33.06 20C33.06 19.48 32.71 18.95 32.01 18.56L12.51 7.47994C11.11 6.68994 9.96997 7.34994 9.96997 8.94994V9.09994C9.96997 7.48994 11.12 6.82994 12.51 7.61994Z" fill="white"/>
  </symbol>

  <symbol id="app-store" viewBox="0 0 120 40">
    <path fill="#A6A6A6" d="M110.135 0H9.535c-.367 0-.73 0-1.095.002-.306.002-.61.008-.919.013C6.85.023 6.18.082 5.517.192a6.665 6.665 0 0 0-1.9.627A6.438 6.438 0 0 0 .193 5.522a12.993 12.993 0 0 0-.179 2.002c-.01.306-.01.614-.015.92V31.56c.005.31.006.61.015.921.008.671.068 1.34.18 2.002.11.663.32 1.306.624 1.905.303.598.701 1.143 1.179 1.614.473.477 1.019.875 1.618 1.179a6.7 6.7 0 0 0 1.901.63c.663.11 1.333.168 2.004.177.31.007.613.011.919.011.366.002.728.002 1.095.002h100.6c.359 0 .724 0 1.084-.002.304 0 .617-.004.922-.01.67-.01 1.338-.068 2-.178a6.805 6.805 0 0 0 1.908-.63A6.293 6.293 0 0 0 117.666 38a6.405 6.405 0 0 0 1.182-1.614c.302-.6.51-1.242.619-1.905.111-.661.173-1.33.185-2.002.004-.31.004-.61.004-.921.008-.364.008-.725.008-1.094V9.536c0-.366 0-.73-.008-1.092 0-.306 0-.614-.004-.92a13.57 13.57 0 0 0-.185-2.002 6.648 6.648 0 0 0-.619-1.904 6.469 6.469 0 0 0-2.799-2.8 6.77 6.77 0 0 0-1.908-.627c-.661-.11-1.33-.169-2-.176-.305-.005-.618-.011-.922-.013-.36-.002-.725-.002-1.084-.002Z"/>
    <path fill="#000" d="M8.445 39.125c-.305 0-.602-.004-.904-.01a12.669 12.669 0 0 1-1.87-.164 5.88 5.88 0 0 1-1.656-.548 5.403 5.403 0 0 1-1.397-1.016 5.32 5.32 0 0 1-1.02-1.397 5.722 5.722 0 0 1-.544-1.657 12.41 12.41 0 0 1-.166-1.875c-.007-.21-.015-.913-.015-.913v-23.1s.009-.692.015-.895a12.37 12.37 0 0 1 .165-1.872 5.755 5.755 0 0 1 .544-1.662c.26-.518.603-.99 1.015-1.398A5.565 5.565 0 0 1 5.667 1.05C6.287.95 6.915.895 7.543.887l.902-.012h102.769l.913.013a12.37 12.37 0 0 1 1.858.162 5.933 5.933 0 0 1 1.671.548 5.589 5.589 0 0 1 2.415 2.42 5.74 5.74 0 0 1 .535 1.65c.104.623.162 1.254.174 1.886.003.284.003.588.003.89.008.375.008.732.008 1.092v20.929c0 .363 0 .718-.008 1.075 0 .325 0 .623-.004.93-.011.62-.069 1.24-.171 1.853a5.715 5.715 0 0 1-.54 1.67c-.263.513-.606.98-1.015 1.386-.409.414-.881.759-1.4 1.022a5.852 5.852 0 0 1-1.668.55c-.618.101-1.243.156-1.869.163-.293.007-.599.011-.897.011l-1.084.002-101.69-.002Z"/>
    <path fill="#fff" d="M24.769 20.3a4.948 4.948 0 0 1 2.356-4.151 5.065 5.065 0 0 0-3.99-2.158c-1.68-.176-3.308 1.005-4.164 1.005-.872 0-2.19-.988-3.608-.958a5.315 5.315 0 0 0-4.473 2.727c-1.934 3.349-.492 8.27 1.361 10.977.927 1.325 2.01 2.805 3.428 2.753 1.387-.058 1.905-.885 3.58-.885 1.658 0 2.144.885 3.59.852 1.489-.025 2.426-1.332 3.32-2.67a10.96 10.96 0 0 0 1.52-3.092 4.782 4.782 0 0 1-2.92-4.4ZM22.037 12.211a4.872 4.872 0 0 0 1.115-3.49 4.957 4.957 0 0 0-3.208 1.66 4.634 4.634 0 0 0-1.143 3.36 4.099 4.099 0 0 0 3.236-1.53ZM42.302 27.14H37.57l-1.137 3.356h-2.005l4.484-12.418h2.083l4.483 12.418h-2.039l-1.136-3.356Zm-4.243-1.55h3.752l-1.85-5.446h-.051l-1.85 5.447ZM55.16 25.97c0 2.813-1.506 4.62-3.779 4.62a3.07 3.07 0 0 1-2.848-1.583h-.043v4.484H46.63V21.442h1.8v1.506h.033a3.212 3.212 0 0 1 2.883-1.6c2.298 0 3.813 1.816 3.813 4.622Zm-1.91 0c0-1.833-.948-3.038-2.393-3.038-1.42 0-2.375 1.23-2.375 3.038 0 1.824.955 3.046 2.375 3.046 1.445 0 2.392-1.197 2.392-3.046ZM65.124 25.97c0 2.813-1.505 4.62-3.778 4.62a3.07 3.07 0 0 1-2.848-1.583h-.043v4.484h-1.859V21.442h1.799v1.506h.034a3.212 3.212 0 0 1 2.883-1.6c2.298 0 3.813 1.816 3.813 4.622Zm-1.91 0c0-1.833-.947-3.038-2.392-3.038-1.42 0-2.375 1.23-2.375 3.038 0 1.824.955 3.046 2.375 3.046 1.445 0 2.392-1.197 2.392-3.046ZM71.71 27.036c.138 1.232 1.334 2.04 2.97 2.04 1.566 0 2.693-.808 2.693-1.919 0-.964-.68-1.54-2.29-1.936l-1.609-.388c-2.28-.55-3.339-1.617-3.339-3.348 0-2.142 1.867-3.614 4.519-3.614 2.624 0 4.423 1.472 4.483 3.614h-1.876c-.112-1.239-1.136-1.987-2.634-1.987-1.497 0-2.521.757-2.521 1.858 0 .878.654 1.395 2.255 1.79l1.368.336c2.548.603 3.606 1.626 3.606 3.443 0 2.323-1.85 3.778-4.793 3.778-2.754 0-4.614-1.42-4.734-3.667h1.902ZM83.346 19.3v2.142h1.722v1.472h-1.722v4.991c0 .776.345 1.137 1.102 1.137.204-.004.408-.018.611-.043v1.463c-.34.064-.686.092-1.032.086-1.833 0-2.548-.689-2.548-2.444v-5.19h-1.316v-1.472h1.316V19.3h1.867ZM86.065 25.97c0-2.849 1.678-4.639 4.294-4.639 2.625 0 4.295 1.79 4.295 4.639 0 2.856-1.661 4.639-4.295 4.639-2.633 0-4.294-1.783-4.294-4.64Zm6.695 0c0-1.954-.895-3.108-2.401-3.108-1.506 0-2.4 1.163-2.4 3.108 0 1.962.894 3.106 2.4 3.106 1.506 0 2.401-1.144 2.401-3.106ZM96.186 21.442h1.772v1.541h.043a2.16 2.16 0 0 1 2.178-1.635c.214-.001.428.022.637.07v1.737a2.594 2.594 0 0 0-.835-.112 1.872 1.872 0 0 0-1.937 2.083v5.37h-1.858v-9.053ZM109.384 27.837c-.25 1.643-1.85 2.771-3.898 2.771-2.634 0-4.269-1.764-4.269-4.595 0-2.84 1.644-4.682 4.191-4.682 2.505 0 4.08 1.72 4.08 4.466v.637h-6.395v.112a2.353 2.353 0 0 0 .639 1.832 2.363 2.363 0 0 0 1.797.732 2.046 2.046 0 0 0 2.091-1.273h1.764Zm-6.282-2.702h4.526a2.166 2.166 0 0 0-.608-1.634 2.168 2.168 0 0 0-1.612-.664 2.293 2.293 0 0 0-2.306 2.298ZM37.826 8.731a2.64 2.64 0 0 1 2.808 2.965c0 1.906-1.03 3.002-2.808 3.002h-2.155V8.73h2.155Zm-1.228 5.123h1.125a1.876 1.876 0 0 0 1.968-2.146 1.882 1.882 0 0 0-1.968-2.134h-1.125v4.28ZM41.68 12.444a2.133 2.133 0 1 1 4.248 0 2.134 2.134 0 1 1-4.247 0Zm3.334 0c0-.976-.439-1.546-1.208-1.546-.773 0-1.207.57-1.207 1.546 0 .984.434 1.55 1.207 1.55.77 0 1.208-.57 1.208-1.55ZM51.573 14.698h-.922l-.93-3.316h-.07l-.927 3.316h-.913l-1.242-4.503h.902l.806 3.436h.067l.925-3.436h.853l.926 3.436h.07l.803-3.436h.889l-1.237 4.503ZM53.853 10.195h.856v.715h.066a1.349 1.349 0 0 1 1.344-.802 1.466 1.466 0 0 1 1.559 1.675v2.915h-.889v-2.692c0-.724-.314-1.084-.972-1.084a1.034 1.034 0 0 0-1.075 1.142v2.634h-.889v-4.503ZM59.094 8.437h.888v6.26h-.888v-6.26ZM61.218 12.444a2.134 2.134 0 1 1 4.247 0 2.133 2.133 0 1 1-4.247 0Zm3.333 0c0-.976-.439-1.546-1.208-1.546-.773 0-1.207.57-1.207 1.546 0 .984.434 1.55 1.207 1.55.77 0 1.208-.57 1.208-1.55ZM66.4 13.424c0-.81.604-1.277 1.676-1.344l1.22-.07v-.389c0-.476-.315-.744-.922-.744-.497 0-.84.182-.939.5h-.86c.09-.773.818-1.27 1.84-1.27 1.128 0 1.765.563 1.765 1.514v3.077h-.855v-.633h-.07a1.515 1.515 0 0 1-1.353.707 1.361 1.361 0 0 1-1.501-1.348Zm2.895-.384v-.377l-1.1.07c-.62.042-.9.253-.9.65 0 .405.351.641.834.641a1.064 1.064 0 0 0 1.166-.984ZM71.348 12.444c0-1.422.732-2.324 1.87-2.324a1.483 1.483 0 0 1 1.38.79h.067V8.437h.888v6.26h-.851v-.71h-.07a1.563 1.563 0 0 1-1.415.785c-1.145 0-1.869-.901-1.869-2.328Zm.918 0c0 .956.45 1.53 1.203 1.53.75 0 1.212-.583 1.212-1.526 0-.938-.468-1.53-1.212-1.53-.748 0-1.203.58-1.203 1.527ZM79.23 12.444a2.134 2.134 0 1 1 4.247 0 2.134 2.134 0 1 1-4.247 0Zm3.333 0c0-.976-.439-1.546-1.208-1.546-.772 0-1.207.57-1.207 1.546 0 .984.435 1.55 1.207 1.55.77 0 1.208-.57 1.208-1.55ZM84.67 10.195h.855v.715h.066a1.348 1.348 0 0 1 1.344-.802 1.466 1.466 0 0 1 1.559 1.675v2.915h-.889v-2.692c0-.724-.314-1.084-.972-1.084a1.034 1.034 0 0 0-1.075 1.142v2.634h-.889v-4.503ZM93.515 9.074v1.142h.976v.748h-.976v2.315c0 .472.195.679.637.679.113 0 .226-.008.339-.02v.74c-.16.028-.322.043-.484.045-.988 0-1.382-.348-1.382-1.216v-2.543h-.714v-.749h.715V9.074h.89ZM95.705 8.437h.88v2.482h.07a1.386 1.386 0 0 1 1.374-.807 1.485 1.485 0 0 1 1.55 1.679v2.907h-.889V12.01c0-.72-.335-1.084-.963-1.084a1.053 1.053 0 0 0-1.134 1.142v2.63h-.888v-6.26ZM104.761 13.482a1.823 1.823 0 0 1-1.951 1.303 2.047 2.047 0 0 1-2.08-2.324 2.083 2.083 0 0 1 1.212-2.172 2.08 2.08 0 0 1 .864-.181c1.253 0 2.009.856 2.009 2.27v.31h-3.18v.05a1.191 1.191 0 0 0 1.199 1.29 1.08 1.08 0 0 0 1.072-.546h.855Zm-3.126-1.451h2.275a1.09 1.09 0 0 0-1.109-1.167 1.151 1.151 0 0 0-1.166 1.167Z"/>
  </symbol>

  <symbol id="headphones-outline" viewBox="-4 -5 83 100" fill="currentColor">
    <path d="M67.167 54.333V71h-8.334V54.333h8.334Zm-50 0V71H13a4.179 4.179 0 0 1-4.167-4.167v-12.5h8.334ZM38 .167C17.292.167.5 16.958.5 37.667v29.166c0 6.917 5.583 12.5 12.5 12.5h12.5V46H8.833v-8.333C8.833 21.542 21.875 8.5 38 8.5s29.167 13.042 29.167 29.167V46H50.5v33.333h16.667V83.5H38v8.333h25c6.917 0 12.5-5.583 12.5-12.5V37.667c0-20.709-16.792-37.5-37.5-37.5Z"/>
  </symbol>

  <symbol id="chat-outline" viewBox="0 -9 84 100" fill="currentColor">
    <path d="M54.5 8.667v29.166H13.542l-4.875 4.875V8.667H54.5ZM58.667.333H4.5A4.179 4.179 0 0 0 .333 4.5v58.333L17 46.167h41.667A4.179 4.179 0 0 0 62.833 42V4.5A4.179 4.179 0 0 0 58.667.333ZM79.5 17h-8.333v37.5H17v8.333A4.179 4.179 0 0 0 21.167 67H67l16.667 16.667v-62.5A4.179 4.179 0 0 0 79.5 17Z"/>
  </symbol>

  <symbol id="devices-outline" viewBox="0 0 100 68" fill="currentColor">
    <path d="M16.667 9h75V.667h-75C12.083.667 8.333 4.417 8.333 9v45.833H0v12.5h58.333v-12.5H16.667V9Zm79.166 8.333h-25a4.179 4.179 0 0 0-4.166 4.167v41.667a4.179 4.179 0 0 0 4.166 4.166h25A4.179 4.179 0 0 0 100 63.167V21.5a4.179 4.179 0 0 0-4.167-4.167Zm-4.166 37.5H75V25.667h16.667v29.166Z"/>
  </symbol>

  <symbol id="thumb-up-outline" viewBox="0 -5 92 100" fill="currentColor">
    <path d="M83.5 29.333H57.208l3.959-19.041.125-1.334a6.272 6.272 0 0 0-1.834-4.416L55.042.167 27.625 27.625a8.147 8.147 0 0 0-2.458 5.875v41.667c0 4.583 3.75 8.333 8.333 8.333H71a8.277 8.277 0 0 0 7.667-5.083L91.25 49.042A8.232 8.232 0 0 0 91.833 46v-8.333c0-4.584-3.75-8.334-8.333-8.334ZM83.5 46 71 75.167H33.5V33.5l18.083-18.083-4.625 22.25H83.5V46ZM.167 33.5h16.666v50H.167v-50Z"/>
  </symbol>

  <symbol id="new-user-outline" viewBox="0 0 86 86" fill="currentColor">
    <path d="M46.652 55.748c0-2.056.511-4.03 1.473-5.79a54.137 54.137 0 0 0-2.782-1.472.362.362 0 0 1-.205-.338v-8.08a3.776 3.776 0 0 0 1.688-3.141v-8.378A7.55 7.55 0 0 0 39.276 21h-1.8a7.55 7.55 0 0 0-7.549 7.55v8.377c0 1.31.675 2.465 1.688 3.14v8.081a.38.38 0 0 1-.205.338c-1.155.562-6.75 3.386-11.937 7.651A4.04 4.04 0 0 0 18 59.277v5.739h32.979a10.52 10.52 0 0 1-.788-.726 12.01 12.01 0 0 1-3.54-8.542Z"/>
    <path d="M58.732 46.48c-5.114 0-9.267 4.154-9.267 9.268 0 5.115 4.153 9.268 9.267 9.268 5.115 0 9.268-4.153 9.268-9.268a9.266 9.266 0 0 0-9.268-9.267ZM64.154 57.1h-4.071v4.07h-2.7V57.1H53.31v-2.701h4.071v-4.071h2.7v4.071h4.072v2.7Z"/>
  </symbol>

  <symbol id="person-outline" viewBox="0 0 64 64" fill="currentColor">
    <path d="M32 5.333C17.28 5.333 5.333 17.28 5.333 32 5.333 46.72 17.28 58.667 32 58.667c14.72 0 26.667-11.947 26.667-26.667C58.667 17.28 46.72 5.333 32 5.333Zm0 8c4.427 0 8 3.574 8 8 0 4.427-3.573 8-8 8a7.99 7.99 0 0 1-8-8c0-4.426 3.573-8 8-8ZM32 51.2c-6.667 0-12.56-3.413-16-8.587.08-5.306 10.667-8.213 16-8.213 5.307 0 15.92 2.907 16 8.213-3.44 5.174-9.333 8.587-16 8.587Z"/>
  </symbol>

  <symbol id="burger-menu-outline" viewBox="0 0 24 16" fill="currentColor">
    <path d="M0 16h24v-2.667H0V16Zm0-6.667h24V6.667H0v2.666ZM0 0v2.667h24V0H0Z"/>
  </symbol>

  <symbol id="search-outline" viewBox="0 0 16 16" fill="currentColor">
    <path d="M11.435 10.063h-.723l-.256-.247a5.92 5.92 0 0 0 1.437-3.87 5.946 5.946 0 1 0-5.947 5.947 5.92 5.92 0 0 0 3.87-1.437l.247.256v.723L14.637 16 16 14.637l-4.565-4.574Zm-5.489 0A4.111 4.111 0 0 1 1.83 5.946 4.111 4.111 0 0 1 5.946 1.83a4.111 4.111 0 0 1 4.117 4.116 4.111 4.111 0 0 1-4.117 4.117Z"/>
  </symbol>
</svg>